<mxfile host="app.diagrams.net" modified="2020-08-26T17:30:32.338Z" agent="5.0 (Windows NT 10.0; Win64; x64) AppleWebKit/537.36 (KHTML, like Gecko) Chrome/84.0.4147.135 Safari/537.36" etag="-WfhK0mkOmSdPwTOa_16" version="13.6.5" type="github">
  <diagram id="p36dRtt4P4fjZN_GKLbB" name="Page-1">
    <mxGraphModel dx="1422" dy="762" grid="1" gridSize="10" guides="1" tooltips="1" connect="1" arrows="1" fold="1" page="1" pageScale="1" pageWidth="850" pageHeight="1100" math="0" shadow="0">
      <root>
        <mxCell id="0" />
        <mxCell id="1" parent="0" />
        <mxCell id="_Rvc9mm6k0_gzKv4h-8a-1" value="" style="rounded=0;whiteSpace=wrap;html=1;" parent="1" vertex="1">
          <mxGeometry width="850" height="760" as="geometry" />
        </mxCell>
        <object label="" id="_Rvc9mm6k0_gzKv4h-8a-2">
          <mxCell style="rounded=0;whiteSpace=wrap;html=1;" parent="1" vertex="1">
            <mxGeometry width="850" height="100" as="geometry" />
          </mxCell>
        </object>
        <mxCell id="_Rvc9mm6k0_gzKv4h-8a-24" value="" style="rounded=1;whiteSpace=wrap;html=1;" parent="1" vertex="1">
          <mxGeometry y="25" width="230" height="55" as="geometry" />
        </mxCell>
        <mxCell id="_Rvc9mm6k0_gzKv4h-8a-4" value="" style="rounded=0;whiteSpace=wrap;html=1;" parent="1" vertex="1">
          <mxGeometry y="100" width="850" height="80" as="geometry" />
        </mxCell>
        <mxCell id="_Rvc9mm6k0_gzKv4h-8a-13" value="" style="rounded=0;whiteSpace=wrap;html=1;" parent="1" vertex="1">
          <mxGeometry x="160" y="110" width="210" height="60" as="geometry" />
        </mxCell>
        <mxCell id="_Rvc9mm6k0_gzKv4h-8a-3" value="&lt;font style=&quot;font-size: 36px&quot;&gt;PapperShare&lt;/font&gt;" style="text;html=1;strokeColor=none;fillColor=none;align=center;verticalAlign=middle;whiteSpace=wrap;rounded=0;" parent="1" vertex="1">
          <mxGeometry x="325" y="30" width="200" height="20" as="geometry" />
        </mxCell>
        <mxCell id="_Rvc9mm6k0_gzKv4h-8a-5" value="&lt;font style=&quot;font-size: 24px&quot;&gt;Give Away&lt;/font&gt;" style="text;html=1;strokeColor=none;fillColor=none;align=center;verticalAlign=middle;whiteSpace=wrap;rounded=0;" parent="1" vertex="1">
          <mxGeometry x="5" y="115" width="140" height="50" as="geometry" />
        </mxCell>
        <mxCell id="_Rvc9mm6k0_gzKv4h-8a-6" value="&lt;font style=&quot;font-size: 24px&quot;&gt;My Shares&lt;/font&gt;" style="text;html=1;strokeColor=none;fillColor=none;align=center;verticalAlign=middle;whiteSpace=wrap;rounded=0;" parent="1" vertex="1">
          <mxGeometry x="380" y="115" width="170" height="50" as="geometry" />
        </mxCell>
        <mxCell id="_Rvc9mm6k0_gzKv4h-8a-7" value="&lt;font style=&quot;font-size: 24px&quot;&gt;How does it work&lt;/font&gt;" style="text;html=1;strokeColor=none;fillColor=none;align=center;verticalAlign=middle;whiteSpace=wrap;rounded=0;" parent="1" vertex="1">
          <mxGeometry x="650" y="115" width="190" height="50" as="geometry" />
        </mxCell>
        <mxCell id="_Rvc9mm6k0_gzKv4h-8a-8" value="" style="rounded=1;whiteSpace=wrap;html=1;" parent="1" vertex="1">
          <mxGeometry x="75" y="220" width="700" height="470" as="geometry" />
        </mxCell>
        <mxCell id="_Rvc9mm6k0_gzKv4h-8a-23" value="&lt;span style=&quot;font-size: 24px&quot;&gt;Login with TAU mail&lt;/span&gt;" style="text;html=1;strokeColor=none;fillColor=none;align=center;verticalAlign=middle;whiteSpace=wrap;rounded=0;" parent="1" vertex="1">
          <mxGeometry x="5" y="26" width="220" height="50" as="geometry" />
        </mxCell>
        <mxCell id="_Rvc9mm6k0_gzKv4h-8a-29" value="&lt;font style=&quot;font-size: 24px&quot;&gt;Find Reference&lt;/font&gt;" style="text;html=1;strokeColor=none;fillColor=none;align=center;verticalAlign=middle;whiteSpace=wrap;rounded=0;" parent="1" vertex="1">
          <mxGeometry x="180" y="115" width="170" height="50" as="geometry" />
        </mxCell>
        <mxCell id="_Rvc9mm6k0_gzKv4h-8a-30" value="" style="html=1;shadow=0;dashed=0;shape=mxgraph.bootstrap.rrect;rSize=5;strokeColor=#DFDFDF;html=1;whiteSpace=wrap;fillColor=#FFFFFF;fontColor=#000000;" parent="1" vertex="1">
          <mxGeometry x="140" y="250" width="560" height="390" as="geometry" />
        </mxCell>
        <mxCell id="_Rvc9mm6k0_gzKv4h-8a-31" value="Find pappers:" style="html=1;shadow=0;dashed=0;shape=mxgraph.bootstrap.topButton;strokeColor=inherit;fillColor=#F7F7F7;rSize=5;perimeter=none;whiteSpace=wrap;resizeWidth=1;align=left;spacing=10;" parent="_Rvc9mm6k0_gzKv4h-8a-30" vertex="1">
          <mxGeometry width="560" height="30" relative="1" as="geometry" />
        </mxCell>
        <mxCell id="_Rvc9mm6k0_gzKv4h-8a-32" value="faculty-dropdown" style="strokeColor=inherit;fillColor=inherit;gradientColor=inherit;fontColor=inherit;html=1;shadow=0;dashed=0;perimeter=none;whiteSpace=wrap;resizeWidth=1;align=left;spacing=10;" parent="_Rvc9mm6k0_gzKv4h-8a-30" vertex="1">
          <mxGeometry width="560" height="30" relative="1" as="geometry">
            <mxPoint y="30" as="offset" />
          </mxGeometry>
        </mxCell>
        <mxCell id="_Rvc9mm6k0_gzKv4h-8a-33" value="course-dropdown" style="strokeColor=inherit;fillColor=inherit;gradientColor=inherit;fontColor=inherit;html=1;shadow=0;dashed=0;perimeter=none;whiteSpace=wrap;resizeWidth=1;align=left;spacing=10;" parent="_Rvc9mm6k0_gzKv4h-8a-30" vertex="1">
          <mxGeometry width="560" height="30" relative="1" as="geometry">
            <mxPoint y="60" as="offset" />
          </mxGeometry>
        </mxCell>
        <mxCell id="_Rvc9mm6k0_gzKv4h-8a-34" value="" style="strokeColor=inherit;fillColor=inherit;gradientColor=inherit;fontColor=inherit;html=1;shadow=0;dashed=0;shape=mxgraph.bootstrap.bottomButton;rSize=5;perimeter=none;whiteSpace=wrap;resizeWidth=1;resizeHeight=0;align=left;spacing=10;" parent="_Rvc9mm6k0_gzKv4h-8a-30" vertex="1">
          <mxGeometry y="1" width="560" height="299" relative="1" as="geometry">
            <mxPoint y="-300" as="offset" />
          </mxGeometry>
        </mxCell>
        <mxCell id="5bolYm-KRSX5uPEzN6YU-1" value="" style="html=1;shadow=0;dashed=0;shape=mxgraph.bootstrap.rrect;rSize=5;strokeColor=none;html=1;whiteSpace=wrap;fillColor=#6C767D;fontColor=#ffffff;" vertex="1" parent="_Rvc9mm6k0_gzKv4h-8a-30">
          <mxGeometry y="90" width="560" height="300" as="geometry" />
        </mxCell>
        <mxCell id="5bolYm-KRSX5uPEzN6YU-2" value="RESULTS:" style="strokeColor=inherit;fillColor=inherit;gradientColor=inherit;fontColor=inherit;html=1;shadow=0;dashed=0;shape=mxgraph.bootstrap.topButton;rSize=5;perimeter=none;whiteSpace=wrap;resizeWidth=1;" vertex="1" parent="5bolYm-KRSX5uPEzN6YU-1">
          <mxGeometry width="560" height="30" relative="1" as="geometry" />
        </mxCell>
        <mxCell id="5bolYm-KRSX5uPEzN6YU-8" value="Entry- free text" style="strokeColor=inherit;fillColor=inherit;gradientColor=inherit;fontColor=inherit;html=1;shadow=0;dashed=0;shape=mxgraph.bootstrap.topButton;rSize=5;perimeter=none;whiteSpace=wrap;resizeWidth=1;" vertex="1" parent="5bolYm-KRSX5uPEzN6YU-1">
          <mxGeometry width="560" height="30" relative="1" as="geometry">
            <mxPoint y="30" as="offset" />
          </mxGeometry>
        </mxCell>
        <mxCell id="5bolYm-KRSX5uPEzN6YU-9" value="Entry- free text" style="strokeColor=inherit;fillColor=inherit;gradientColor=inherit;fontColor=inherit;html=1;shadow=0;dashed=0;shape=mxgraph.bootstrap.topButton;rSize=5;perimeter=none;whiteSpace=wrap;resizeWidth=1;" vertex="1" parent="5bolYm-KRSX5uPEzN6YU-1">
          <mxGeometry width="560" height="30" relative="1" as="geometry">
            <mxPoint y="60" as="offset" />
          </mxGeometry>
        </mxCell>
      </root>
    </mxGraphModel>
  </diagram>
</mxfile>
